<?xml version="1.0" encoding="UTF-8"?>
<svg width="32px" height="32px" viewBox="0 0 32 32" version="1.1" xmlns="http://www.w3.org/2000/svg" xmlns:xlink="http://www.w3.org/1999/xlink">
    <!-- Generator: Sketch 48.2 (47327) - http://www.bohemiancoding.com/sketch -->
    <title>icon_Wind speed</title>
    <desc>Created with Sketch.</desc>
    <defs>
        <polygon id="path-1" points="0.211651399 0.0862977486 7.89556627 0.0862977486 7.89556627 9.15662651 0.211651399 9.15662651"></polygon>
        <polygon id="path-3" points="0.00920756381 0.0209638554 7.02447439 0.0209638554 7.02447439 8.9287601 0.00920756381 8.9287601"></polygon>
        <polygon id="path-5" points="0.173833832 0.0310152269 9.36 0.0310152269 9.36 6.48713168 0.173833832 6.48713168"></polygon>
    </defs>
    <g id="01_英文移动端_首页" stroke="none" stroke-width="1" fill="none" fill-rule="evenodd" transform="translate(-69.000000, -1012.000000)">
        <g id="icon_Wind-speed" transform="translate(70.000000, 1013.000000)">
            <circle id="Oval-5" stroke="#FFFFFF" cx="15" cy="15" r="15"></circle>
            <g id="Page-1" transform="translate(5.000000, 5.000000)">
                <g id="Group-3" transform="translate(10.120482, 10.822458)">
                    <mask id="mask-2" fill="white">
                        <use xlink:href="#path-1"></use>
                    </mask>
                    <g id="Clip-2"></g>
                    <path d="M7.89556627,4.83812048 C7.84833735,5.29691566 7.73291566,5.70293976 7.48183133,6.05257831 C6.60014458,7.28053012 5.50183133,8.26342169 4.12640964,8.90751807 C2.97966265,9.44462651 2.3813494,9.12101205 2.19653012,7.86149398 C2.08857831,7.12824096 2.0613494,6.38342169 1.95580723,5.64992771 C1.7526747,4.23715663 1.17195181,2.96028916 0.478939759,1.72872289 C0.325204819,1.45546988 0.0237590361,1.11715663 0.375084337,0.880289157 C0.804722892,0.590409639 0.995325301,-0.170313253 1.79653012,0.174024096 C3.57291566,0.93739759 5.30110843,1.77209639 6.80496386,3.01113253 C7.39556627,3.49812048 7.85773494,4.05836145 7.89556627,4.83812048" id="Fill-1" fill="#FFFFFF" mask="url(#mask-2)"></path>
                </g>
                <path d="M10.0629398,12.3672048 C9.71571084,14.6500964 9.56053012,16.6206988 8.66293976,18.4163614 C8.09089157,19.5606988 7.39980723,19.9064819 6.1566747,19.5886506 C4.62342169,19.1966024 3.31571084,18.3874458 2.27161446,17.1949157 C1.54727711,16.3679277 1.71836145,15.6551566 2.73860241,15.1985301 C4.22173494,14.5353976 5.73450602,13.9366024 6.9566747,12.8093735 C7.42896386,12.3737108 7.91209639,11.9508193 8.3026988,11.4387711 C8.51908434,11.1553976 8.74583133,11.1117831 9.01257831,11.3421446 C9.4453494,11.7158795 10.3099277,11.7886506 10.0629398,12.3672048" id="Fill-4" fill="#FFFFFF"></path>
                <path d="M2.97074699,11.7304337 C2.66448193,11.7526024 2.14713253,11.6810361 1.63436145,11.5873012 C0.701831325,11.4169398 0.145686747,10.8971807 0.0461686747,9.96103614 C-0.139855422,8.21308434 0.235566265,6.56850602 1.18906024,5.08585542 C1.6753253,4.32971084 2.32303614,4.30946988 3.00592771,4.92754217 C3.79508434,5.64175904 4.39363855,6.53549398 5.2093012,7.22489157 C6.15412048,8.02368675 7.23701205,8.58778313 8.35219277,9.09212048 C8.76424096,9.27838554 8.76183133,9.49742169 8.74448193,9.92754217 C8.70520482,10.8993494 8.12978313,11.0735663 7.35725301,11.2123614 C5.97556627,11.4603133 4.59725301,11.7029639 2.97074699,11.7304337" id="Fill-6" fill="#FFFFFF"></path>
                <g id="Group-10" transform="translate(6.265060, 0.220048)">
                    <mask id="mask-4" fill="white">
                        <use xlink:href="#path-3"></use>
                    </mask>
                    <g id="Clip-9"></g>
                    <path d="M4.16214458,0.0259036145 C4.85853012,0.0543373494 5.56214458,0.0034939759 6.23804819,0.269036145 C6.97925301,0.56060241 7.20190361,0.987831325 6.88310843,1.72807229 C6.68551807,2.18614458 6.44768675,2.63433735 6.17274699,3.05048193 C5.13925301,4.61313253 4.64286747,6.35337349 4.45636145,8.19072289 C4.40792771,8.66783133 4.22407229,8.76518072 3.77033735,8.87289157 C2.89226506,9.08156627 2.50792771,8.68783133 2.14720482,7.98927711 C1.26383133,6.27939759 0.287445783,4.61361446 0.0356385542,2.6553012 C-0.0964096386,1.62807229 0.261180723,0.976506024 1.22431325,0.544216867 C2.15804819,0.125180723 3.14575904,-0.00759036145 4.16214458,0.0259036145" id="Fill-8" fill="#FFFFFF" mask="url(#mask-4)"></path>
                </g>
                <g id="Group-13" transform="translate(10.843373, 4.316434)">
                    <mask id="mask-6" fill="white">
                        <use xlink:href="#path-5"></use>
                    </mask>
                    <g id="Clip-12"></g>
                    <path d="M9.35983133,4.88057831 C9.37236145,6.20563855 8.91453012,6.62419277 7.90706024,6.44949398 C6.90103614,6.27527711 5.91019277,5.996 4.89910843,5.87479518 C3.63525301,5.72371084 2.37718072,5.91696386 1.14296386,6.21045783 C0.782240964,6.29624096 0.654289157,6.18491566 0.457421687,5.86780723 C-0.0965542169,4.97624096 0.219590361,4.37768675 0.901277108,3.73961446 C2.02657831,2.68612048 3.03814458,1.50901205 4.36850602,0.686843373 C4.69477108,0.48539759 5.02633735,0.304192771 5.38706024,0.176722892 C6.18224096,-0.104240964 6.9080241,0.00419277108 7.47260241,0.650457831 C8.60224096,1.94371084 9.20368675,3.46949398 9.35983133,4.88057831" id="Fill-11" fill="#FFFFFF" mask="url(#mask-6)"></path>
                </g>
            </g>
        </g>
    </g>
</svg>