<?xml version="1.0" encoding="UTF-8"?>
<svg width="32px" height="32px" viewBox="0 0 32 32" version="1.1" xmlns="http://www.w3.org/2000/svg" xmlns:xlink="http://www.w3.org/1999/xlink">
    <!-- Generator: Sketch 48.2 (47327) - http://www.bohemiancoding.com/sketch -->
    <title>icon_wind direction</title>
    <desc>Created with Sketch.</desc>
    <defs>
        <polygon id="path-1" points="0.194625508 0.101048226 4.66615028 0.101048226 4.66615028 6.45833333 0.194625508 6.45833333"></polygon>
        <polygon id="path-3" points="0.204386048 0.105791667 5.979375 0.105791667 5.979375 5.55851572 0.204386048 5.55851572"></polygon>
        <polygon id="path-5" points="0.00295360353 0.089375 14.9193855 0.089375 14.9193855 2.67297086 0.00295360353 2.67297086"></polygon>
    </defs>
    <g id="01_英文移动端_首页" stroke="none" stroke-width="1" fill="none" fill-rule="evenodd" transform="translate(-274.000000, -1012.000000)">
        <g id="icon_wind-direction" transform="translate(275.000000, 1013.000000)">
            <circle id="Oval-5-Copy-3" stroke="#FFFFFF" cx="15" cy="15" r="15"></circle>
            <g id="Page-1" transform="translate(2.500000, 10.000000)">
                <path d="M12.6975208,7.639875 C12.6975208,6.824875 12.7004375,6.009875 12.6962708,5.19508333 C12.6937708,4.708625 12.8933542,4.45008333 13.4137708,4.46925 C13.8635625,4.48591667 14.3148125,4.47466667 14.7618958,4.39508333 C15.0608542,4.34195833 15.2637708,4.47195833 15.3681458,4.758 C15.9806458,6.43445833 16.5941875,8.11070833 17.2064792,9.787375 C17.3075208,10.0644583 17.2539792,10.2577917 16.9291875,10.326125 C15.7054375,10.5825833 14.4760625,10.773 13.2191875,10.7388333 C12.8402292,10.7288333 12.6937708,10.5482083 12.6960625,10.188625 C12.7010625,9.33904167 12.6975208,8.48945833 12.6975208,7.639875" id="Fill-1" fill="#FFFFFF"></path>
                <g id="Group-5" transform="translate(7.500000, 4.285688)">
                    <mask id="mask-2" fill="white">
                        <use xlink:href="#path-1"></use>
                    </mask>
                    <g id="Clip-4"></g>
                    <path d="M4.66172917,3.368125 C4.66172917,4.20104167 4.6531875,5.03416667 4.66527083,5.866875 C4.6713125,6.28333333 4.5031875,6.45270833 4.07735417,6.45770833 C2.9250625,6.47125 1.80027083,6.28291667 0.6731875,6.07729167 C0.192770833,5.98958333 0.1131875,5.75125 0.262770833,5.34375 C0.681520833,4.20416667 1.09672917,3.06333333 1.51464583,1.92333333 C1.6819375,1.46729167 1.8631875,1.01625 2.0188125,0.556458333 C2.13902083,0.201875 2.3656875,0.07 2.73214583,0.107083333 C3.14547917,0.14875 3.56172917,0.184375 3.97652083,0.182291667 C4.45797917,0.18 4.67464583,0.381041667 4.66589583,0.869375 C4.65089583,1.70208333 4.66172917,2.53520833 4.66172917,3.368125" id="Fill-3" fill="#FFFFFF" mask="url(#mask-2)"></path>
                </g>
                <path d="M18.2410208,9.98514583 C17.9774792,10.0086875 17.8518542,9.84452083 17.7760208,9.63952083 C17.1812292,8.03139583 16.5916458,6.42139583 16.0010208,4.8118125 C15.8614375,4.43139583 15.9947708,4.2243125 16.3937292,4.14764583 C16.8181042,4.0661875 17.2468542,3.9843125 17.6549792,3.84722917 C18.1760208,3.67222917 18.5339375,3.79889583 18.8551875,4.24827083 C19.7616458,5.5161875 20.6935208,6.76577083 21.6258125,8.0149375 C21.7981042,8.2461875 21.8745625,8.4561875 21.5964375,8.62597917 C20.5531042,9.26264583 19.4183125,9.67952083 18.2410208,9.98514583" id="Fill-6" fill="#FFFFFF"></path>
                <path d="M6.8406875,3.76872917 C7.41922917,3.90185417 8.0981875,4.0401875 8.76652083,4.21852083 C9.12027083,4.31310417 8.99152083,4.5964375 8.91110417,4.81977083 C8.48839583,5.99227083 8.05672917,7.16164583 7.62964583,8.33247917 C7.47527083,8.75539583 7.31464583,9.1764375 7.17485417,9.60414583 C7.0675625,9.93310417 6.86777083,10.0345625 6.53902083,9.94664583 C5.46360417,9.6589375 4.4388125,9.2458125 3.4538125,8.72935417 C3.08027083,8.53352083 3.0769375,8.28935417 3.3131875,7.97414583 C4.28964583,6.67185417 5.25964583,5.36477083 6.2300625,4.05810417 C6.35964583,3.88352083 6.50277083,3.74247917 6.8406875,3.76872917" id="Fill-8" fill="#FFFFFF"></path>
                <g id="Group-12" transform="translate(18.958333, 2.410687)">
                    <mask id="mask-4" fill="white">
                        <use xlink:href="#path-3"></use>
                    </mask>
                    <g id="Clip-11"></g>
                    <path d="M2.35816667,0.105791667 C2.57775,0.114958333 2.72941667,0.239333333 2.87733333,0.356416667 C3.82920833,1.10975 4.770875,1.876625 5.72983333,2.62079167 C6.02983333,2.8535 6.04629167,3.07016667 5.84983333,3.37204167 C5.33295833,4.16620833 4.70191667,4.84579167 3.934,5.404125 C3.6165,5.63495833 3.38754167,5.61454167 3.14920833,5.29141667 C2.22295833,4.03475 1.28420833,2.78745833 0.348791667,1.53766667 C0.179833333,1.31204167 0.1115,1.07495833 0.412333333,0.930375 C1.005875,0.645375 1.61545833,0.393708333 2.219625,0.131 C2.26566667,0.111 2.32108333,0.112041667 2.35816667,0.105791667" id="Fill-10" fill="#FFFFFF" mask="url(#mask-4)"></path>
                </g>
                <path d="M3.72179167,2.519625 C4.3295,2.79066667 5.01179167,3.05191667 5.64825,3.39775 C5.96220833,3.56816667 5.68866667,3.834 5.55679167,4.01295833 C4.80616667,5.03254167 4.042625,6.04254167 3.28345833,7.055875 C3.22095833,7.13920833 3.15866667,7.22254167 3.09679167,7.30629167 C2.45866667,8.16670833 2.40783333,8.177125 1.58575,7.468375 C1.05825,7.01379167 0.603041667,6.49045833 0.188875,5.93025 C-0.0863333333,5.55754167 -0.0740416667,5.24795833 0.313875,4.949625 C1.27595833,4.20983333 2.22575,3.45358333 3.18054167,2.70420833 C3.31991667,2.59483333 3.47095833,2.51483333 3.72179167,2.519625" id="Fill-13" fill="#FFFFFF"></path>
                <g id="Group-17" transform="translate(5.000000, 0.119021)">
                    <mask id="mask-6" fill="white">
                        <use xlink:href="#path-5"></use>
                    </mask>
                    <g id="Clip-16"></g>
                    <path d="M1.2631875,0.0893125 C1.58527083,0.0895208333 1.77735417,0.214729167 1.70652083,0.530354167 C1.62547917,0.891395833 1.83172917,0.9755625 2.10714583,1.0605625 C5.0500625,1.9674375 8.02985417,2.09097917 11.0486042,1.51389583 C11.6636042,1.3961875 12.2538125,1.19702083 12.8554792,1.03514583 C13.1436042,0.957645833 13.3223542,0.8518125 13.2513125,0.499729167 C13.1933958,0.212020833 13.3825625,0.0749375 13.6506875,0.0955625 C14.0567292,0.1268125 14.4236042,0.282229167 14.7461042,0.5318125 C14.9169375,0.663895833 14.9598542,0.8405625 14.8819375,1.04327083 C14.7948542,1.26972917 14.7161042,1.50014583 14.6163125,1.72097917 C14.3927708,2.2149375 14.1429792,2.2643125 13.7894375,1.85597917 C13.5944375,1.6305625 13.4094375,1.68410417 13.1858958,1.7586875 C11.2442292,2.40702083 9.23839583,2.7030625 7.20235417,2.6705625 C5.3975625,2.64160417 3.61089583,2.3799375 1.88402083,1.81285417 C1.55922917,1.7061875 1.28110417,1.5874375 1.04735417,2.0011875 C0.9056875,2.2518125 0.617354167,2.1743125 0.489229167,1.95577083 C0.2981875,1.63014583 0.162145833,1.2699375 0.0250625,0.915979167 C-0.0366041667,0.757229167 0.0358958333,0.595354167 0.178395833,0.506395833 C0.519020833,0.293479167 0.892354167,0.157020833 1.2631875,0.0893125" id="Fill-15" fill="#FFFFFF" mask="url(#mask-6)"></path>
                </g>
            </g>
        </g>
    </g>
</svg>