<?xml version="1.0" encoding="UTF-8"?>
<svg width="30px" height="30px" viewBox="0 0 30 30" version="1.1" xmlns="http://www.w3.org/2000/svg" xmlns:xlink="http://www.w3.org/1999/xlink">
    <!-- Generator: Sketch 48.2 (47327) - http://www.bohemiancoding.com/sketch -->
    <title>icon_search for</title>
    <desc>Created with Sketch.</desc>
    <defs></defs>
    <g id="01_英文移动端_首页" stroke="none" stroke-width="1" fill="none" fill-rule="evenodd" transform="translate(-327.000000, -49.000000)">
        <g id="logo导航" transform="translate(0.000000, 42.000000)">
            <g id="Group">
                <rect id="Rectangle-3-Copy-6" fill="#FFFFFF" x="0" y="0" width="375" height="44"></rect>
                <g id="Group-4" transform="translate(20.000000, 13.000000)" stroke="#333333" stroke-linecap="round">
                    <path d="M0,1 L22,1" id="Line-3"></path>
                    <path d="M0,9 L22,9" id="Line-3-Copy"></path>
                    <path d="M0,17 L16,17" id="Line-3-Copy-2"></path>
                </g>
                <g id="Group-17" transform="translate(343.000000, 23.000000) rotate(-45.000000) translate(-343.000000, -23.000000) translate(334.000000, 11.000000)" stroke="#333333">
                    <circle id="Oval-2" cx="8.86956522" cy="8.86956522" r="8.86956522"></circle>
                    <path d="M8.86956522,18.2608696 L8.86956522,23.4782609" id="Line-5" stroke-linecap="round"></path>
                </g>
                <g id="logo-" transform="translate(148.000000, 14.000000)">
                    <path d="M17.1786509,4.25950595 C17.4585354,4.83922159 17.73842,5.41922825 18.018018,5.99690673 C14.7195631,5.98031848 11.4085034,5.89563111 8.10947553,5.97537111 C7.32998137,7.75526109 6.58142634,9.74119458 5.80193217,11.5207935 C5.19661385,12.9651353 4.59129552,14.4112231 3.9848313,15.8558559 C3.94529797,15.8325741 3.90347285,15.8110385 3.86279363,15.7871747 C-1.2478921,12.7061258 -1.51144764,4.3066515 4.42113031,1.25994316 C8.73284169,-0.95531559 14.1517728,-0.424782655 17.1786509,4.25950595" id="Fill-1" fill="#013E98"></path>
                    <path d="M37.3843136,8.81753599 C35.1319421,8.84056318 32.8795706,8.86186334 30.6263215,8.88460269 C30.4385019,9.47294749 30.2495122,10.0589896 30.0625703,10.6458952 L30.0625703,10.7806043 L33.0036134,10.7806043 C33.0036134,11.1769598 32.7534799,11.940887 32.5601019,12.6325663 C32.3316174,13.4555007 32.1938246,14.3049163 31.8690899,14.5907413 C31.4542486,14.9525561 30.6532364,14.7740954 30.0625703,14.7740954 C29.0465311,14.7740954 27.9927524,14.897003 27.2894531,14.5141759 C26.6941062,14.1906438 26.366446,13.4690292 26.3351427,12.4040214 C26.2611266,9.87160579 27.4202247,6.42443486 29.7120909,5.62049795 C30.5710288,5.31769035 31.6894619,5.45096024 33.0036134,5.46535223 C34.6463028,5.48233479 36.5227427,5.4319628 37.7602452,5.4319628 C37.9071072,4.82289352 38.0513362,4.21324856 38.1981982,3.6036036 L37.4472127,3.6036036 C34.5055845,3.65023367 31.5645414,3.69456102 28.6232058,3.73888837 C27.0211813,3.73888837 24.9449272,5.01488275 24.127532,6.3461424 C22.8730614,8.03259651 22.2344165,10.324378 22.3572891,12.275357 C22.4333531,13.4937834 22.7267845,14.6710487 23.6691002,15.4700923 C24.1199256,15.8511924 24.6605649,16.2918753 25.8691046,16.4691847 C27.0317133,16.6384346 28.842036,16.5535218 30.155895,16.5667624 C31.8594356,16.5857599 33.3760344,16.5857599 34.5096802,16.1750123 C35.1164368,15.9551026 35.3882192,15.6016352 35.6278208,15.2418353 C36.0935664,14.5418086 36.1570505,14.0185156 36.3419445,13.1155617 C36.6105089,11.8153888 37.0282757,10.2227705 37.3843136,8.95253291 C37.380803,8.91050828 37.3843136,8.86186334 37.3843136,8.81753599" id="Fill-3" fill="#013E98"></path>
                    <path d="M57.489587,8.80681481 L57.4266394,8.80681481 C57.5245579,8.53187898 57.5402948,8.25520489 57.6373391,7.97968964 C57.7273892,7.72879984 57.8967066,7.47848945 57.9850082,7.22673052 C58.3658996,6.47058457 58.775642,5.88768585 59.4089068,5.56929336 C59.7414219,5.47137101 59.9637785,5.33288911 60.3574926,5.28421765 C62.2097849,5.0478134 64.7600381,5.34129073 66.6528383,5.1941175 C66.7787336,4.67292724 66.9028803,4.14855017 67.027027,3.62649078 C65.0138686,3.60968754 62.9960474,3.66125611 60.9805576,3.64387345 C60.3574926,3.63952778 59.8174836,3.60968754 59.1941272,3.6036036 C58.9880903,3.6505368 58.695209,3.6505368 58.4871321,3.69515231 C57.9235177,3.69515231 57.3351322,3.88752047 56.8502023,4.10914946 C54.5237629,5.17528628 53.2283823,8.4982725 53.3399977,11.486063 C53.4003225,13.1133702 53.8351275,14.6404374 54.8498665,15.6477628 C55.161399,15.9571743 55.555696,16.2483339 56.1044478,16.4102824 C57.0900444,16.6298834 58.5646509,16.5548482 59.8757684,16.5548482 C61.6587017,16.5548482 63.2991286,16.5765766 64.4715282,16.5765766 C64.5959663,16.0101914 64.7209873,15.4409091 64.8454254,14.8724959 C63.3084541,14.8724959 61.5977941,14.8858226 60.15029,14.8640943 C60.0086579,14.8751033 59.8230206,14.8580104 59.6892569,14.8449734 C58.1240175,14.7004075 57.2401279,13.6603447 57.2401279,10.7151418 C57.2616933,10.7151418 57.2998699,10.6470597 57.3220181,10.6470597 C57.6964982,10.6250416 58.05087,10.6702366 58.4244759,10.6470597 C59.0484151,10.6470597 60.826977,10.6551716 62.3109091,10.6661806 C63.0633664,10.6702366 63.7971725,10.6450317 64.3249418,10.6487979 C64.7093303,10.6531436 64.9730692,10.71688 65.1001302,10.6105561 C65.2939273,10.084151 65.3385152,9.40072255 65.5308551,8.87431749 L57.489587,8.87431749 L57.489587,8.80681481 Z" id="Fill-5" fill="#013E98"></path>
                    <path d="M52.1478758,4.05803807 C51.2615288,3.57000723 49.1355336,3.59651185 46.8377497,3.6083237 C44.4774972,3.62330457 41.9360268,3.63194739 40.6283114,3.63194739 C39.5793103,7.94845632 38.5264786,12.2626605 37.4774775,16.5765766 C38.4557594,16.5765766 40.1848433,16.5097388 41.3472897,16.4901484 C41.4851921,16.4584581 41.7925258,14.8846019 41.9342589,14.332038 C42.2318687,13.1566155 43.9438621,6.11992517 44.2450079,5.2818604 C44.3531493,5.19485608 44.5561723,5.23951061 44.7453461,5.24152727 C45.011427,5.24354393 45.2901784,5.22885114 45.586315,5.2354773 C46.4060681,5.25247483 47.236429,5.24671296 47.7497324,5.26486287 C48.267161,5.2818604 48.8087521,5.2308678 49.0951647,5.49994738 C49.6777139,6.05251123 49.5872523,7.32012381 48.8267265,8.1388863 C48.4445483,8.54797945 47.9719085,8.56267223 47.4992687,8.78306396 C47.3313106,8.80639956 47.1624686,8.8274304 46.9942159,8.850766 C46.3801377,8.850766 44.7571326,8.78680918 44.0693886,8.89484434 C43.9910082,9.01325088 44.3693558,9.32295168 44.3714184,9.46901522 C44.5974251,10.1131929 45.299313,11.4433218 45.9186951,12.7391676 C46.2663977,13.4640115 46.6527012,14.2770121 46.955615,14.8906518 C47.2997816,15.5863983 47.5632106,16.0392817 47.984579,16.1749739 C48.6867615,16.6195025 49.5731085,16.5301935 50.5054229,16.507146 C51.1466101,16.491877 51.7494911,16.5682219 52.2893141,16.5097388 C52.2716344,16.3334254 52.1534744,16.200038 52.0529942,15.9903058 C51.9115559,15.6976025 51.7656976,15.3233687 51.6201339,15.0493915 C50.8419284,13.5844347 50.0831705,11.9872429 49.4602525,10.6908209 C49.4947281,10.451415 50.2060451,10.6107308 51.2143827,9.96223175 C51.2482689,9.94120091 51.5644426,9.78476599 51.5962662,9.76171849 C51.7483125,9.65281905 52.0415024,9.39094181 52.1950219,9.24862349 C52.8453437,8.6473718 53.2045381,7.76378821 53.3141529,6.7517148 C53.4284822,5.6840393 53.0306868,4.54232369 52.1478758,4.05803807" id="Fill-7" fill="#013E98"></path>
                    <path d="M69.9771198,4.03992458 C69.4233776,4.26965857 68.9065515,4.6585282 68.4036779,5.14808728 C66.1974293,7.28600222 65.5393335,12.407855 67.3642121,15.0694708 C67.7848237,15.6854704 68.3682152,16.1379943 69.019044,16.3411092 C69.135606,16.3775658 69.3547775,16.4854887 69.6195855,16.5216558 C70.0021182,16.5746046 70.5061544,16.5537723 71.1273341,16.5708432 C71.9548953,16.5939902 72.9911636,16.5387268 73.8867436,16.5514576 C75.1166037,16.5679499 76.2054848,16.5453815 76.6423744,16.5430668 C76.6516761,16.5343867 77.4205203,16.5367014 77.4274966,16.5216558 C77.6027757,16.0723147 77.6507376,15.4204372 77.8228192,14.9710961 L77.8228192,14.8351074 C76.8481747,14.8351074 75.7148198,14.8307674 74.6305895,14.8452343 C74.2073619,14.8495743 73.8591292,14.8495743 73.4707829,14.8533357 C73.2202182,14.8556504 72.9045415,14.872432 72.6987412,14.8495743 C72.5804351,14.8351074 72.404284,14.8174579 72.2932449,14.7922855 C71.2848817,14.5709423 70.4820281,13.8117206 70.2480321,12.1651008 C70.1835015,11.7099729 70.2195456,11.2505049 70.237277,10.6379774 C72.8295465,10.6165664 75.4197812,10.6379774 78.0094347,10.6151197 C78.1768654,10.0488862 78.3419707,9.48091664 78.507948,8.91323643 L78.507948,8.84495277 L70.4236018,8.84495277 C70.4236018,7.92399145 70.8974075,7.33027086 71.1837257,6.75014913 C71.5761414,6.15353517 71.9726267,5.70708737 72.700776,5.40299364 C73.3856142,5.14577258 74.5823369,5.17557435 75.8723674,5.17383832 C75.92062,5.17383832 75.8671352,5.19669599 75.9153878,5.19669599 C77.1917565,5.22244703 78.6567753,5.23720324 79.5645638,5.23720324 C79.7101937,4.73925337 79.8540795,4.23927813 80,3.73959224 L80,3.6036036 L71.5432948,3.6036036 C70.9825762,3.78270353 70.4645874,3.83767766 69.9771198,4.03992458" id="Fill-9" fill="#013E98"></path>
                    <path d="M8.18845475,7.20720721 C11.6853319,7.22686087 15.1796284,7.26644897 18.6765056,7.27234507 L18.7387297,7.27234507 C18.7387297,8.65989383 18.7464718,9.73719545 18.309183,10.8734581 C16.3673337,15.9334345 11.6993825,17.0952469 7.20720721,16.387715 C7.46958053,15.9334345 8.0631464,14.4580058 8.73700137,12.9511312 C9.26604922,11.7657345 9.93617648,10.6145912 9.90004639,9.58305456 C9.86563677,8.6045828 9.23508056,7.76845973 8.18845475,7.47140862 L8.18845475,7.33888676 L8.18845475,7.20720721 Z" id="Fill-11" fill="#E9460A"></path>
                </g>
            </g>
        </g>
        <g id="Group" transform="translate(0.000000, 42.000000)">
            <rect id="Rectangle-3-Copy-6" fill="#FFFFFF" x="0" y="0" width="375" height="44"></rect>
            <g id="Group-17" transform="translate(343.000000, 23.000000) rotate(-45.000000) translate(-343.000000, -23.000000) translate(334.000000, 11.000000)" stroke="#333333">
                <circle id="Oval-2" cx="8.86956522" cy="8.86956522" r="8.86956522"></circle>
                <path d="M8.86956522,18.2608696 L8.86956522,23.4782609" id="Line-5" stroke-linecap="round"></path>
            </g>
        </g>
    </g>
</svg>