<?xml version="1.0" encoding="UTF-8"?>
<svg width="40px" height="40px" viewBox="0 0 40 40" version="1.1" xmlns="http://www.w3.org/2000/svg" xmlns:xlink="http://www.w3.org/1999/xlink">
    <!-- Generator: Sketch 48.2 (47327) - http://www.bohemiancoding.com/sketch -->
    <title>icon_Household air conditioner</title>
    <desc>Created with Sketch.</desc>
    <defs></defs>
    <g id="01_英文移动端_首页" stroke="none" stroke-width="1" fill="none" fill-rule="evenodd" transform="translate(-27.000000, -579.000000)">
        <g id="Group" transform="translate(27.000000, 579.000000)" stroke="#666666">
            <g id="Page-1" transform="translate(5.000000, 9.975000)">
                <path d="M3,13.165545 L28,13.165545 C29.6568542,13.165545 31,11.8223992 31,10.165545 L31,2.999845 C31,1.34299075 29.6568542,-0.000155 28,-0.000155 L3,-0.000155 C1.34314575,-0.000155 -6.46995335e-16,1.34299075 -4.4408921e-16,2.999845 L-4.4408921e-16,10.165545 C4.9460801e-16,11.8223992 1.34314575,13.165545 3,13.165545 Z" id="Fill-1"></path>
                <path d="M1.76049,10.5630175 L29.239665,10.5630175" id="Stroke-2"></path>
                <path d="M25.182695,9.261715 L29.23982,9.261715" id="Stroke-3"></path>
                <g id="Group-16" transform="translate(5.425000, 16.353895)">
                    <path d="M1.389575,0.208165 C1.389575,0.208165 2.9202,1.968965 1.389575,3.49959 C-0.14105,5.030215 1.389575,6.71429 1.389575,6.71429" id="Stroke-4"></path>
                    <path d="M5.245975,0.208165 C5.245975,0.208165 6.7766,1.968965 5.245975,3.49959 C3.71535,5.030215 5.245975,6.71429 5.245975,6.71429" id="Stroke-6"></path>
                    <path d="M9.1024525,0.208165 C9.1024525,0.208165 10.6330775,1.968965 9.1024525,3.49959 C7.5718275,5.030215 9.1024525,6.71429 9.1024525,6.71429" id="Stroke-8"></path>
                    <path d="M16.9654475,0.503285 L16.9654475,6.219685 L16.9654475,0.503285 Z" id="Stroke-10"></path>
                    <path d="M14.49002,1.9324625 L19.44072,4.7906625 L14.49002,1.9324625 Z" id="Stroke-12"></path>
                    <path d="M19.440875,1.9324625 L14.490175,4.7906625 L19.440875,1.9324625 Z" id="Stroke-14"></path>
                </g>
            </g>
        </g>
    </g>
</svg>