<?xml version="1.0" encoding="UTF-8"?>
<svg width="40px" height="40px" viewBox="0 0 40 40" version="1.1" xmlns="http://www.w3.org/2000/svg" xmlns:xlink="http://www.w3.org/1999/xlink">
    <!-- Generator: Sketch 48.2 (47327) - http://www.bohemiancoding.com/sketch -->
    <title>icon_home appliances</title>
    <desc>Created with Sketch.</desc>
    <defs></defs>
    <g id="01_英文移动端_首页" stroke="none" stroke-width="1" fill="none" fill-rule="evenodd" transform="translate(-122.000000, -673.000000)">
        <rect id="Rectangle-Copy-17" x="94" y="650" width="94" height="94"></rect>
        <g id="Page-1" transform="translate(126.000000, 681.000000)" stroke="#666666">
            <path d="M3.07656098,7.51659268 L27.9143659,7.51659268" id="Stroke-1"></path>
            <path d="M3.07656098,5.92319268 L27.9143659,5.92319268" id="Stroke-2"></path>
            <g id="Group-7" transform="translate(0.000000, 6.874212)">
                <path d="M0.753413698,1.57169356 L3.0767122,2.39516585 L3.0767122,0.642531707 L0.776285366,0.642531707 C0.556428889,0.642531707 0.3782,0.820760596 0.3782,1.04061707 L0.3782,1.04061707 C0.3782,1.27923407 0.528506243,1.49197714 0.753413698,1.57169356 Z" id="Stroke-3"></path>
                <path d="M30.2468887,1.57169356 L27.9235902,2.39516585 L27.9235902,0.642531707 L30.2240171,0.642531707 C30.4438735,0.642531707 30.6221024,0.820760596 30.6221024,1.04061707 L30.6221024,1.04061707 C30.6221024,1.27923407 30.4717962,1.49197714 30.2468887,1.57169356 Z" id="Stroke-5"></path>
            </g>
            <path d="M13.5538049,18.6096024 L17.437122,18.6096024 L17.437122,17.6833829 C17.437122,16.6110345 16.5678118,15.7417244 15.4954634,15.7417244 L15.4954634,15.7417244 C14.423115,15.7417244 13.5538049,16.6110345 13.5538049,17.6833829 L13.5538049,18.6096024 Z" id="Stroke-8"></path>
            <g id="Group-12" transform="translate(3.024390, 0.069334)">
                <polygon id="Stroke-9" points="10.5294146 23.0609756 14.4127317 23.0609756 14.4127317 18.6597317 10.5294146 18.6597317"></polygon>
                <path d="M3.05217073,23.0609756 L21.8899756,23.0609756 C23.5468299,23.0609756 24.8899756,21.7178299 24.8899756,20.0609756 L24.8899756,3.3084878 C24.8899756,1.65163356 23.5468299,0.308487805 21.8899756,0.308487805 L3.05217073,0.308487805 C1.39531648,0.308487805 0.0521707317,1.65163356 0.0521707317,3.3084878 L0.0521707317,20.0609756 C0.0521707317,21.7178299 1.39531648,23.0609756 3.05217073,23.0609756 Z" id="Stroke-11"></path>
            </g>
        </g>
    </g>
</svg>