<?xml version="1.0" encoding="UTF-8"?>
<svg width="40px" height="40px" viewBox="0 0 40 40" version="1.1" xmlns="http://www.w3.org/2000/svg" xmlns:xlink="http://www.w3.org/1999/xlink">
    <!-- Generator: Sketch 48.2 (47327) - http://www.bohemiancoding.com/sketch -->
    <title>icon_Central air conditioning</title>
    <desc>Created with Sketch.</desc>
    <defs></defs>
    <g id="01_英文移动端_首页" stroke="none" stroke-width="1" fill="none" fill-rule="evenodd" transform="translate(-122.000000, -579.000000)">
        <g id="Group-14" transform="translate(122.000000, 579.000000)" stroke="#666666">
            <g id="Page-1" transform="translate(10.000000, 8.000000)">
                <path d="M3.32193548,23.5483871 L16.7632258,23.5483871 C18.4200801,23.5483871 19.7632258,22.2052413 19.7632258,20.5483871 L19.7632258,3.32258065 C19.7632258,1.6657264 18.4200801,0.322580645 16.7632258,0.322580645 L3.32193548,0.322580645 C1.66508123,0.322580645 0.321935484,1.6657264 0.321935484,3.32258065 L0.321935484,20.5483871 C0.321935484,22.2052413 1.66508123,23.5483871 3.32193548,23.5483871 Z" id="Stroke-1"></path>
                <path d="M13.5940645,2.64509677 L16.7630968,2.64509677" id="Stroke-3"></path>
                <path d="M17.506,2.64509677 L18.1376129,2.64509677" id="Stroke-4"></path>
                <g id="Group-53" transform="translate(1.290323, 1.290323)">
                    <path d="M9.46670968,5.14890323 C9.46670968,7.65341935 7.4363871,9.68374194 4.93187097,9.68374194 C2.42735484,9.68374194 0.397032258,7.65341935 0.397032258,5.14890323 C0.397032258,2.6443871 2.42735484,0.614064516 4.93187097,0.614064516 C7.4363871,0.614064516 9.46670968,2.6443871 9.46670968,5.14890323 Z" id="Stroke-5"></path>
                    <path d="M5.568,5.14890323 C5.568,5.50051613 5.28348387,5.78503226 4.93187097,5.78503226 C4.58090323,5.78503226 4.29574194,5.50051613 4.29574194,5.14890323 C4.29574194,4.79793548 4.58090323,4.51277419 4.93187097,4.51277419 C5.28348387,4.51277419 5.568,4.79793548 5.568,5.14890323 Z" id="Stroke-7"></path>
                    <path d="M1.99754839,1.62032258 L4.03303226,1.62032258" id="Stroke-9"></path>
                    <path d="M0.760774194,3.36651613 L4.03303226,3.36651613" id="Stroke-11"></path>
                    <path d="M0.397225806,5.11296774 L4.29593548,5.11296774" id="Stroke-13"></path>
                    <path d="M1.95032258,8.60529032 L4.03354839,8.60529032" id="Stroke-15"></path>
                    <path d="M0.589419355,6.85916129 L4.03329032,6.85916129" id="Stroke-17"></path>
                    <path d="M7.77567742,1.62032258 L5.74083871,1.62032258" id="Stroke-19"></path>
                    <path d="M9.01245161,3.36651613 L5.74083871,3.36651613" id="Stroke-21"></path>
                    <path d="M9.37658065,5.11296774 L5.47787097,5.11296774" id="Stroke-23"></path>
                    <path d="M7.82354839,8.60529032 L5.74032258,8.60529032" id="Stroke-25"></path>
                    <path d="M9.18445161,6.85916129 L5.74058065,6.85916129" id="Stroke-27"></path>
                    <path d="M9.46670968,16.1414839 C9.46670968,18.646 7.4363871,20.6756774 4.93187097,20.6756774 C2.42735484,20.6756774 0.397032258,18.646 0.397032258,16.1414839 C0.397032258,13.6369677 2.42735484,11.6066452 4.93187097,11.6066452 C7.4363871,11.6066452 9.46670968,13.6369677 9.46670968,16.1414839 Z" id="Stroke-29"></path>
                    <path d="M5.568,16.1414839 C5.568,16.4924516 5.28348387,16.7776129 4.93187097,16.7776129 C4.58090323,16.7776129 4.29574194,16.4924516 4.29574194,16.1414839 C4.29574194,15.789871 4.58090323,15.5053548 4.93187097,15.5053548 C5.28348387,15.5053548 5.568,15.789871 5.568,16.1414839 Z" id="Stroke-31"></path>
                    <path d="M1.99754839,12.6129677 L4.03303226,12.6129677" id="Stroke-33"></path>
                    <path d="M0.760774194,14.3591613 L4.03303226,14.3591613" id="Stroke-35"></path>
                    <path d="M0.397225806,16.1052903 L4.29593548,16.1052903" id="Stroke-37"></path>
                    <path d="M1.95032258,19.5976129 L4.03354839,19.5976129" id="Stroke-39"></path>
                    <path d="M0.589419355,17.8514194 L4.03329032,17.8514194" id="Stroke-41"></path>
                    <path d="M7.77567742,12.6129677 L5.74083871,12.6129677" id="Stroke-43"></path>
                    <path d="M9.01245161,14.3591613 L5.74083871,14.3591613" id="Stroke-45"></path>
                    <path d="M9.37658065,16.1052903 L5.47787097,16.1052903" id="Stroke-47"></path>
                    <path d="M7.82354839,19.5976129 L5.74032258,19.5976129" id="Stroke-49"></path>
                    <path d="M9.18445161,17.8514194 L5.74058065,17.8514194" id="Stroke-51"></path>
                </g>
            </g>
        </g>
    </g>
</svg>