<?xml version="1.0" encoding="UTF-8"?>
<svg width="32px" height="32px" viewBox="0 0 32 32" version="1.1" xmlns="http://www.w3.org/2000/svg" xmlns:xlink="http://www.w3.org/1999/xlink">
    <!-- Generator: Sketch 48.2 (47327) - http://www.bohemiancoding.com/sketch -->
    <title>icon_Fast hot and cold</title>
    <desc>Created with Sketch.</desc>
    <defs>
        <polygon id="path-1" points="1.85285566e-05 0.152260638 16.8817941 0.152260638 16.8817941 20.8333333 1.85285566e-05 20.8333333"></polygon>
        <polygon id="path-3" points="0.0197449835 0.128478846 2.5412234 0.128478846 2.5412234 1.6955952 0.0197449835 1.6955952"></polygon>
    </defs>
    <g id="01_英文移动端_首页" stroke="none" stroke-width="1" fill="none" fill-rule="evenodd" transform="translate(-206.000000, -1012.000000)">
        <g id="icon_Fast-hot-and-cold" transform="translate(206.666667, 1013.000000)">
            <circle id="Oval-5-Copy-2" stroke="#FFFFFF" cx="15" cy="15" r="15"></circle>
            <g id="Page-1" transform="translate(5.000000, 4.166667)">
                <g id="Group-3" transform="translate(0.000000, 0.069481)">
                    <mask id="mask-2" fill="white">
                        <use xlink:href="#path-1"></use>
                    </mask>
                    <g id="Clip-2"></g>
                    <path d="M2.26717642,7.54822695 C1.75720301,7.09809397 1.16234486,6.9108156 0.664117908,6.56640071 C0.163896277,6.22065603 0.0142952128,5.80465426 0.264073582,5.40970745 C0.521830674,5.00234929 0.939827128,4.9349734 1.48238032,5.22641844 C1.88863032,5.44472518 2.2862367,5.67898936 2.69115691,5.9001773 C2.81660018,5.96888298 2.95489805,6.1018617 3.09607713,6.01054965 C3.2549867,5.9079344 3.14239805,5.73816489 3.10848848,5.60518617 C3.00387855,5.19406028 2.88042996,4.78758865 2.77249557,4.37712766 C2.63641401,3.8589539 2.86602394,3.41635638 3.3522828,3.30177305 C3.8423094,3.18630319 4.13286791,3.44494681 4.26318706,3.88843085 C4.54399379,4.84410461 4.82214096,5.80110816 5.06881649,6.76586879 C5.16367465,7.13754433 5.35250443,7.39064716 5.67985372,7.56972518 C6.42475621,7.97664007 7.17032358,8.3831117 7.9048094,8.80820035 C8.24700798,9.00633865 8.42364805,8.96533688 8.42320479,8.54224291 C8.421875,7.60075355 8.41589096,6.65904255 8.41744238,5.71755319 C8.41788564,5.43231383 8.26717642,5.23661348 8.07768174,5.04955674 C7.38153812,4.36205674 6.6860594,3.67367021 5.99811613,2.97774823 C5.60715869,2.58235816 5.56527039,2.1195922 5.87067819,1.8035461 C6.16522606,1.49858156 6.68583777,1.5045656 7.07191933,1.84742908 C7.40259309,2.14153369 7.70378989,2.46843972 8.02426862,2.77429078 C8.25454344,2.99437057 8.39439273,2.9114805 8.4041445,2.61981383 C8.42098848,2.12180851 8.40724734,1.62291667 8.41633422,1.12468972 C8.42675089,0.546897163 8.74457004,0.14751773 9.17697252,0.152171986 C9.62799202,0.157047872 9.95489805,0.533156028 9.97573138,1.10695922 C9.99301862,1.58634752 10.0178413,2.06994681 9.97506649,2.54601064 C9.92342642,3.12335993 10.1344193,3.34454787 10.7184176,3.43275709 C13.2372562,3.8135195 15.0681516,5.18630319 16.1860594,7.46445035 C18.1297651,11.4256649 15.8166002,16.3673759 11.5355718,17.452039 C11.3208112,17.5063387 11.1064938,17.5632979 10.8897385,17.6085106 C10.0951906,17.7742908 10.0954122,17.7727394 10.0965204,18.6111702 C10.0971853,19.0726064 10.1025044,19.5344858 10.0927527,19.9957004 C10.0830009,20.4518174 9.91101507,20.7946809 9.39926862,20.83125 C8.94071365,20.8640514 8.5887633,20.5258422 8.55862145,19.9972518 C8.53003103,19.5003546 8.54820479,19.0005762 8.53734486,18.5023493 C8.53424202,18.3633865 8.58964982,18.1721188 8.4083555,18.1178191 C8.25011082,18.0706117 8.13574911,18.2153369 8.04510195,18.327039 C7.78823138,18.6428635 7.52737145,18.9498227 7.19004876,19.187633 C6.74589982,19.5003546 6.25986259,19.5222961 5.98836436,19.2082447 C5.62976507,18.7935727 5.80418883,18.3928635 6.1022828,18.0648493 C6.63574911,17.4779699 7.17453457,16.8859929 7.77870124,16.3762411 C8.41300975,15.8407801 8.63840869,15.2069149 8.52737145,14.4181294 C8.43694592,13.7765071 8.42121011,13.1315603 8.43140514,12.4855053 C8.43694592,12.1277926 8.328125,11.9981383 7.97550975,12.2115691 C7.20223848,12.6800975 6.42165337,13.1366578 5.63973848,13.5912234 C5.34496897,13.7625443 5.20578457,14.0209663 5.12599734,14.3412234 C4.89860372,15.254344 4.66655585,16.166578 4.41456117,17.0732713 C4.26407358,17.6149379 3.86136968,17.9019504 3.46354167,17.8 C3.04199911,17.6920656 2.82590869,17.2980053 2.88840869,16.7403812 C2.9005984,16.6308954 2.92564273,16.5220745 2.95378989,16.4154699 C3.02471188,16.1477394 3.10538564,15.8826684 3.17276152,15.614273 C3.21176862,15.4597961 3.35871011,15.2722961 3.2130984,15.1495124 C3.03224734,14.9974734 2.87887855,15.2193262 2.72972074,15.2971188 C2.41943706,15.4593528 2.13042996,15.6614805 1.82413564,15.8321365 C1.64838209,15.9300975 1.4630984,16.0309397 1.26961436,16.0732713 C0.885527482,16.1572695 0.524711879,16.1151596 0.325687057,15.704477 C0.127548759,15.2960106 0.291999113,14.9695479 0.618905142,14.7408245 C1.05640514,14.4345301 1.52847961,14.1785461 1.97972074,13.8913121 C2.10848848,13.8093085 2.34430408,13.7869238 2.29931294,13.5714982 C2.26451684,13.4061613 2.05817819,13.4287677 1.92342642,13.3875443 C1.50055408,13.2581117 1.06992465,13.1523936 0.649268617,13.0165337 C0.153701241,12.8569592 -0.0725842199,12.4792996 0.0506427305,12.0597518 C0.180075355,11.6180408 0.600288121,11.4054965 1.11380762,11.5364805 C1.98925089,11.7596631 2.8658023,11.9797429 3.73548316,12.2242021 C4.22528812,12.3618351 4.66367465,12.3385638 5.10915337,12.058422 C5.79598848,11.6264628 6.50675975,11.2317376 7.21176862,10.8290337 C7.58322252,10.6169326 7.53025266,10.4136968 7.20423316,10.2301862 C6.41611259,9.78692376 5.62200798,9.35474291 4.82967642,8.91923759 C4.47927748,8.72664007 4.1200133,8.77096631 3.75410018,8.87358156 C2.90148493,9.11294326 2.04665337,9.3447695 1.19270833,9.57903369 C0.615137411,9.7375 0.157025709,9.53448582 0.0293661348,9.06507092 C-0.0923093972,8.61826241 0.167664007,8.27207447 0.747894504,8.06551418 C1.22927748,7.89419326 1.76097074,7.87158688 2.26717642,7.54822695" id="Fill-1" fill="#FFFFFF" mask="url(#mask-2)"></path>
                </g>
                <path d="M19.3786569,15.6769504 C19.3669105,16.1953457 18.9076906,16.525133 18.3649158,16.3546986 C17.9646498,16.2290337 17.5858821,16.0253546 17.2713874,15.7381206 C16.9839317,15.4759309 16.892398,15.1505762 17.1038342,14.7972961 C17.3192598,14.4367021 17.642398,14.302172 18.0442154,14.4504433 C18.4243129,14.5909574 18.7755984,14.791977 19.0909796,15.0486259 C19.2873449,15.2082004 19.3768839,15.4242908 19.3786569,15.6769504" id="Fill-4" fill="#FFFFFF"></path>
                <path d="M14.848648,1.77045656 C14.6935062,2.24740691 14.4587988,2.76425089 14.0170878,3.14346188 C13.7752881,3.35068706 13.4789672,3.35534131 13.2054743,3.14767287 C12.8918661,2.90964096 12.769969,2.59115691 12.8931959,2.22546543 C13.034375,1.80746897 13.261547,1.4262633 13.5702793,1.10578457 C13.7956782,0.871963652 14.0784796,0.798160461 14.3732491,0.951307624 C14.6646941,1.10246011 14.8606161,1.33827571 14.848648,1.77045656" id="Fill-6" fill="#FFFFFF"></path>
                <g id="Group-10" transform="translate(18.173759, 9.599623)">
                    <mask id="mask-4" fill="white">
                        <use xlink:href="#path-3"></use>
                    </mask>
                    <g id="Clip-9"></g>
                    <path d="M1.31615691,0.133532801 C2.1576906,0.127105496 2.53778812,0.36491578 2.54133422,0.893284574 C2.54488032,1.41589096 2.12910018,1.69226507 1.3352172,1.69403812 C1.17010195,1.69425975 1.00410018,1.70024379 0.839649823,1.68716755 C0.359153369,1.64860372 -0.0147384752,1.30152926 0.0222739362,0.893284574 C0.0648271277,0.424534574 0.360483156,0.17918883 0.820589539,0.135970745 C0.984375,0.120678191 1.15082004,0.133532801 1.31615691,0.133532801" id="Fill-8" fill="#FFFFFF" mask="url(#mask-4)"></path>
                </g>
                <path d="M14.2154477,20.1625 C13.5545434,20.1680408 12.7617686,18.887234 13.0549867,18.2872784 C13.2910239,17.804344 13.8615027,17.6846631 14.2524601,18.0558954 C14.590891,18.377039 14.8202793,18.7826241 14.9783023,19.2161348 C15.1516179,19.6917553 14.7604388,20.1580674 14.2154477,20.1625" id="Fill-11" fill="#FFFFFF"></path>
                <path d="M19.2852615,5.38277926 C19.2943484,5.57847961 19.2265293,5.74802748 19.0904477,5.88344415 C18.7586658,6.21345301 18.3639406,6.45879876 17.9235594,6.59776152 C17.5310505,6.72165337 17.1912899,6.59155585 16.9975842,6.20104167 C16.8111924,5.8255984 16.9390736,5.51287677 17.2420434,5.27262855 C17.5594193,5.0208555 17.8938608,4.78038564 18.290359,4.6693484 C18.8346853,4.51708777 19.2786126,4.84510195 19.2852615,5.38277926" id="Fill-13" fill="#FFFFFF"></path>
            </g>
        </g>
    </g>
</svg>