<?xml version="1.0" encoding="UTF-8"?>
<svg width="40px" height="40px" viewBox="0 0 40 40" version="1.1" xmlns="http://www.w3.org/2000/svg" xmlns:xlink="http://www.w3.org/1999/xlink">
    <!-- Generator: Sketch 48.2 (47327) - http://www.bohemiancoding.com/sketch -->
    <title>icon_Zero carbon</title>
    <desc>Created with Sketch.</desc>
    <defs></defs>
    <g id="01_英文移动端_首页" stroke="none" stroke-width="1" fill="none" fill-rule="evenodd" transform="translate(-309.000000, -673.000000)">
        <rect id="Rectangle-Copy-19" x="282" y="650" width="94" height="94"></rect>
        <g id="Page-1" transform="translate(316.000000, 681.000000)">
            <path d="M4.11291892,23.1563294 L8.46686486,23.1563294 L8.46686486,17.4970353 C8.46686486,16.9447505 8.01914961,16.4970353 7.46686486,16.4970353 L5.11291892,16.4970353 C4.56063417,16.4970353 4.11291892,16.9447505 4.11291892,17.4970353 L4.11291892,23.1563294 Z" id="Stroke-1" stroke="#666666"></path>
            <polygon id="Stroke-3" stroke="#666666" points="12.2284324 19.8951529 24 19.8951529 24 18.1572706 12.2284324 18.1572706"></polygon>
            <g id="Group-18" transform="translate(0.000000, 0.220800)">
                <path d="M12.2284324,22.9355294 L22.1055135,22.9355294 C23.210083,22.9355294 24.1055135,22.0400989 24.1055135,20.9355294 L24.1055135,13.7145882 L12.2284324,13.7145882 L12.2284324,22.9355294 Z" id="Stroke-4" stroke="#666666"></path>
                <path d="M12.2282919,22.9411765 L2.35121081,22.9411765 C1.24664131,22.9411765 0.351210811,22.045746 0.351210811,20.9411765 L0.351210811,6.35973238 C0.351210811,5.69988755 0.67667024,5.08250528 1.22107051,4.70964666 L5.15961105,2.0121484 C5.8408109,1.54559603 6.7386918,1.54559603 7.41989165,2.0121484 L11.3584322,4.70964666 C11.9028325,5.08250528 12.2282919,5.69988755 12.2282919,6.35973238 L12.2282919,22.9411765 Z" id="Stroke-6" stroke="#666666"></path>
                <path d="M20.2646811,7.18228235 C20.2646811,9.39169412 18.4798162,11.1818118 16.2782486,11.1818118 C14.0766811,11.1818118 12.2918162,9.39169412 12.2918162,7.18228235 C12.2918162,4.97287059 14.0766811,3.18275294 16.2782486,3.18275294 C18.4798162,3.18275294 20.2646811,4.97287059 20.2646811,7.18228235 Z" id="Stroke-7" stroke="#666666"></path>
                <path d="M16.2781081,1.95204706 L16.2781081,0.485223529" id="Stroke-8" stroke="#666666"></path>
                <path d="M18.2657027,2.34712941 L18.8229459,0.991129412" id="Stroke-9" stroke="#666666"></path>
                <path d="M19.9529622,3.4728 L20.983827,2.43232941" id="Stroke-10" stroke="#666666"></path>
                <path d="M21.0850162,5.15887059 L22.4335027,4.59134118" id="Stroke-11" stroke="#666666"></path>
                <path d="M21.490827,7.15065882 L22.9531514,7.14148235" id="Stroke-12" stroke="#666666"></path>
                <path d="M12.5149946,3.56294118 L11.4595351,2.54788235" id="Stroke-13" stroke="#666666"></path>
                <path d="M14.1747081,2.39675294 L13.5844378,1.05487059" id="Stroke-14" stroke="#666666"></path>
                <polygon id="Fill-15" fill="#FFFFFF" points="22.3116712 9.51642353 12.2280108 9.51642353 12.2280108 14.6630118 25.5923459 14.6630118"></polygon>
                <path d="M21.0326123,9.51642353 L12.2280108,9.51642353 L12.2280108,14.6630118 L23.5576832,14.6630118 C24.1099679,14.6630118 24.5576832,14.2152965 24.5576832,13.6630118 C24.5576832,13.4752083 24.504798,13.2912004 24.4050826,13.1320559 L22.7274113,10.4545118 C22.3617009,9.87084231 21.7213896,9.51642353 21.0326123,9.51642353 Z" id="Stroke-16" stroke="#666666"></path>
                <path d="M4.11284865,8.04854118 L8.46679459,8.04854118" id="Stroke-17" stroke="#666666"></path>
            </g>
        </g>
    </g>
</svg>