<?xml version="1.0" encoding="UTF-8"?>
<svg width="40px" height="40px" viewBox="0 0 40 40" version="1.1" xmlns="http://www.w3.org/2000/svg" xmlns:xlink="http://www.w3.org/1999/xlink">
    <!-- Generator: Sketch 48.2 (47327) - http://www.bohemiancoding.com/sketch -->
    <title>icon_Smart product</title>
    <desc>Created with Sketch.</desc>
    <defs></defs>
    <g id="01_英文移动端_首页" stroke="none" stroke-width="1" fill="none" fill-rule="evenodd" transform="translate(-215.000000, -673.000000)">
        <rect id="Rectangle-Copy-18" x="188" y="650" width="94" height="94"></rect>
        <g id="Page-1" transform="translate(222.000000, 680.000000)" stroke="#666666">
            <g id="Group-4" transform="translate(0.000000, 4.777395)">
                <path d="M3.35135135,15.1804865 L22.6486486,15.1804865 C24.3055029,15.1804865 25.6486486,13.8373407 25.6486486,12.1804865 L25.6486486,3.69567568 C25.6486486,2.03882143 24.3055029,0.695675676 22.6486486,0.695675676 L3.35135135,0.695675676 C1.6944971,0.695675676 0.351351351,2.03882143 0.351351351,3.69567568 L0.351351351,12.1804865 C0.351351351,13.8373407 1.6944971,15.1804865 3.35135135,15.1804865 Z" id="Stroke-1"></path>
                <path d="M5.14524324,20.7297297 L20.8547568,20.7297297 C21.4070415,20.7297297 21.8547568,20.2820145 21.8547568,19.7297297 L21.8547568,18.3286486 C21.8547568,17.7763639 21.4070415,17.3286486 20.8547568,17.3286486 L5.14524324,17.3286486 C4.59295849,17.3286486 4.14524324,17.7763639 4.14524324,18.3286486 L4.14524324,19.7297297 C4.14524324,20.2820145 4.59295849,20.7297297 5.14524324,20.7297297 Z" id="Stroke-3"></path>
            </g>
            <path d="M6.49318378,12.3985568 L8.24783243,12.3985568" id="Stroke-5"></path>
            <path d="M17.7522378,12.3985568 L19.5068865,12.3985568" id="Stroke-6"></path>
            <g id="Group-11" transform="translate(11.243243, 0.561178)">
                <path d="M2.86787027,1.60391892 C2.86787027,2.21808108 2.37035676,2.71489189 1.7568973,2.71489189 C1.14343784,2.71489189 0.645924324,2.21808108 0.645924324,1.60391892 C0.645924324,0.990459459 1.14343784,0.492945946 1.7568973,0.492945946 C2.37035676,0.492945946 2.86787027,0.990459459 2.86787027,1.60391892 Z" id="Stroke-7"></path>
            </g>
        </g>
    </g>
</svg>