<?xml version="1.0" encoding="UTF-8"?>
<svg width="32px" height="32px" viewBox="0 0 32 32" version="1.1" xmlns="http://www.w3.org/2000/svg" xmlns:xlink="http://www.w3.org/1999/xlink">
    <!-- Generator: Sketch 48.2 (47327) - http://www.bohemiancoding.com/sketch -->
    <title>icon_Refrigerant</title>
    <desc>Created with Sketch.</desc>
    <defs>
        <polygon id="path-1" points="0 0.186468647 20.7695957 0.186468647 20.7695957 20.8333333 0 20.8333333"></polygon>
    </defs>
    <g id="01_英文移动端_首页" stroke="none" stroke-width="1" fill="none" fill-rule="evenodd" transform="translate(-137.000000, -1012.000000)">
        <g id="icon_Refrigerant" transform="translate(138.333333, 1013.000000)">
            <circle id="Oval-5-Copy" stroke="#FFFFFF" cx="15" cy="15" r="15"></circle>
            <g id="Page-1" transform="translate(3.333333, 5.000000)">
                <g id="Group-3" transform="translate(0.000000, 0.019802)">
                    <mask id="mask-2" fill="white">
                        <use xlink:href="#path-1"></use>
                    </mask>
                    <g id="Clip-2"></g>
                    <path d="M18.6658828,1.98058993 C18.5992574,2.30051568 18.5594472,2.49812294 18.5167492,2.69511139 C18.4843647,2.84424505 18.4728135,3.04061469 18.2634488,3.01854373 C18.0216997,2.99317244 17.7929455,2.88818069 17.6578383,2.67139026 C17.5522277,2.50183581 17.6997112,2.39189356 17.797071,2.27205033 C17.9468234,2.08743812 18.239934,2.02803218 18.3300743,1.64251238 C17.9794142,1.82361799 17.679703,2.30113449 17.4154703,1.70728135 C17.41217,1.70026815 17.372566,1.6992368 17.3709158,1.70377475 C17.1817657,2.18603548 16.8686469,1.80010314 16.5586221,1.84073845 C16.7061056,2.05443482 16.922896,2.17551568 17.0815182,2.34940182 C17.332137,2.62415429 17.0289191,3.11342822 16.6337046,3.04226485 C16.1134901,2.94882426 16.377929,2.36693482 16.0825495,2.05092822 C16.0266502,2.3747731 16.037995,2.7217203 15.6341172,2.77308168 C15.967863,3.21016914 15.3410066,3.22130776 15.2768564,3.50183581 C15.5670792,3.54432756 15.7653053,3.3747731 15.9936469,3.32155528 C16.1349422,3.28855198 16.2888201,3.27865099 16.3618399,3.42056518 C16.4769389,3.64375 16.4732261,3.89168729 16.3707096,4.11755363 C16.2991337,4.27514439 16.1433993,4.22667079 16.0058168,4.19799917 C15.7857261,4.1522071 15.5817244,3.99750413 15.2391089,4.07712459 C15.5763614,4.28525165 15.9249587,4.43603548 15.4408416,4.93067244 C16.2490099,4.59280116 15.9010314,5.24688531 16.145462,5.45501238 C16.2069307,5.20996287 16.2570545,5.00245462 16.3113036,4.79618399 C16.3566832,4.62415429 16.4140264,4.44490512 16.640099,4.47460809 C16.8700908,4.50492987 17.0666667,4.62848597 17.1863036,4.82547442 C17.2960396,5.00658003 17.1805281,5.15282591 17.0427393,5.27122525 C16.8676155,5.42139026 16.6471122,5.52700083 16.4666254,5.92778465 C16.8544142,5.64065594 17.1427805,5.46759488 17.3936056,5.82753713 C17.642368,5.38508663 17.9658003,5.73987211 18.2941832,5.79865924 C18.1415429,5.5047236 17.912995,5.37415429 17.7250825,5.20356848 C17.6134901,5.10208333 17.5454208,4.9702764 17.6273102,4.83702558 C17.7582921,4.62394802 17.9598185,4.48636551 18.2168317,4.47419554 C18.3787541,4.46656353 18.4474422,4.59053218 18.4961221,4.7307962 C18.5714109,4.94903053 18.5392327,5.20212459 18.6879538,5.41313944 C18.9924092,4.94696782 19.0889439,4.39416254 19.5885314,3.97687706 C19.2811881,4.07382426 19.0610974,4.15942657 18.832962,4.21161304 C18.4726073,4.29432756 18.2104373,3.82382426 18.4515677,3.47955858 C18.7778878,3.0137995 19.1654703,3.60868399 19.5264439,3.46491337 C19.1427805,3.08125 18.9486799,2.59218234 18.6658828,1.98058993 Z M6.54418317,7.43252888 C6.4505363,7.84981436 6.63679868,8.16953383 6.91175743,8.45233086 C7.25911716,8.80917904 7.6205033,9.15303218 7.95878713,9.51833746 C8.2125,9.79205858 8.41959571,9.78875825 8.69249175,9.52865099 C10.2789191,8.01648102 12.2056931,7.60682756 14.3148102,7.85662129 C14.6590759,7.89746287 14.9082508,7.92262789 15.0445957,7.5257632 C15.1747525,7.14663779 15.3867987,6.79061469 14.917533,6.48677805 C14.5328383,6.23780941 14.2642739,5.8747731 14.0703795,5.46945132 C13.909901,5.13364274 13.7108498,5.03525165 13.3366749,5.12766089 C11.28717,5.6332302 9.23518977,6.12889851 7.17640264,6.5952764 C6.68094059,6.70748762 6.43217822,6.91087046 6.54418317,7.43252888 Z M10.757467,14.341151 C10.757467,14.4442863 10.7572607,14.5474216 10.757467,14.6505569 C10.7591172,15.4923474 10.6306106,15.5843441 9.81171617,15.3073226 C9.25870462,15.1204414 8.70961221,14.9215965 8.15825083,14.7299711 C7.93485974,14.6522071 7.73725248,14.6854167 7.64546205,14.9236592 C7.55676568,15.1540635 7.72116337,15.2792698 7.89958746,15.3615718 C8.13308581,15.469245 8.38226073,15.5437087 8.61534653,15.6524134 C8.85627063,15.7646246 9.25148515,15.7239893 9.30862211,16.008849 C9.3740099,16.3331064 8.95239274,16.3644596 8.76241749,16.5441213 C8.72549505,16.5791873 8.67743399,16.6024959 8.63721122,16.6346741 C8.47941419,16.761118 8.35276403,16.9073639 8.48415842,17.1159035 C8.60420792,17.3069101 8.79645215,17.3186675 8.9870462,17.2454414 C9.11369637,17.1967616 9.22549505,17.1107467 9.34740099,17.0480404 C9.49261551,16.9735767 9.62297855,16.791646 9.80738449,16.9137583 C9.97632013,17.0257632 9.93547855,17.223783 9.91093234,17.3894183 C9.85276403,17.7815388 9.80779703,18.173453 9.8339934,18.5701114 C9.84492574,18.7338903 9.89711221,18.8834365 10.0833746,18.9145833 C10.2972772,18.9500619 10.3979373,18.8141295 10.4447607,18.6305487 C10.4868399,18.4642946 10.5260314,18.296184 10.5509901,18.1268358 C10.6256601,17.6173474 10.6759901,17.1037335 10.7675743,16.5975454 C10.8806106,15.9739893 11.0872937,15.8912748 11.6590759,16.1982054 C11.9165017,16.3364068 12.1764026,16.4700701 12.4334158,16.6088903 C12.9903465,16.9100454 13.0243812,17.0864068 12.5555281,17.5197814 C12.0769802,17.9622318 11.567698,18.371679 11.0786304,18.8034035 C10.9154703,18.9473804 10.7908828,19.1433375 10.9554868,19.344245 C11.1341172,19.5622731 11.3579208,19.4838903 11.5499587,19.333519 C11.7661304,19.1643771 11.9711634,18.9805899 12.1863036,18.8097979 C12.3548267,18.6759282 12.4919967,18.4110767 12.7409653,18.5084365 C13.0299505,18.6212665 12.8863861,18.9269596 12.9243399,19.1501444 C12.9385726,19.2343028 12.9336221,19.3223804 12.9505363,19.40592 C12.9870462,19.5892946 13.0790429,19.739047 13.284901,19.7357467 C13.4872525,19.7328589 13.5953383,19.5847566 13.6196782,19.4024134 C13.6491749,19.1821163 13.6374175,18.9566625 13.6572195,18.7347153 C13.6846535,18.4319101 13.8092409,18.3180487 14.0881188,18.5331889 C14.3738036,18.7530734 14.6650578,18.9657384 14.9513614,19.1852104 C15.1718647,19.3543523 15.4243399,19.4921411 15.6227723,19.2145008 C15.8094472,18.9535685 15.5730611,18.7695751 15.3841172,18.6206477 C14.9119637,18.2487417 14.4266089,17.8935437 13.9565182,17.5195751 C13.5155116,17.1685025 13.5421205,16.8632219 14.0280941,16.558354 C14.2754125,16.4030322 14.5283003,16.2567863 14.7791254,16.1070338 C15.3393564,15.7728754 15.5594472,15.8679662 15.6962046,16.5276196 C15.8179043,17.116316 15.9200083,17.7091378 16.027269,18.3007219 C16.0714109,18.5437087 16.1702145,18.7501856 16.4521865,18.7159447 C16.7582921,18.6790223 16.7535479,18.4199464 16.7261139,18.1957302 C16.6821782,17.8380569 16.5984323,17.4853342 16.5549092,17.1276609 C16.5122112,16.7772071 16.6411304,16.6243606 17.0004538,16.8046411 C17.1537129,16.88158 17.3067657,16.9620256 17.4674505,17.0199876 C17.6745462,17.0944513 17.8884488,17.108684 17.9983911,16.8669348 C18.0988449,16.6456064 17.9435231,16.5146246 17.7820132,16.4026196 C17.7116749,16.3539398 17.6273102,16.3240305 17.5606848,16.2712252 C17.3933993,16.1387995 17.0827558,16.0958952 17.1155528,15.8291873 C17.1469059,15.5732054 17.4544554,15.5783622 17.6458746,15.483684 C17.8608086,15.3772483 18.0949257,15.3108292 18.3137789,15.211613 C18.5458333,15.106415 18.852764,15.0026609 18.7122937,14.6685025 C18.5802805,14.3547649 18.2966584,14.4395421 18.0443894,14.5424711 C17.5035479,14.763387 16.9608498,14.9797649 16.4218647,15.2045998 C15.8174917,15.4568688 15.6048267,15.3196988 15.5926568,14.6538573 C15.5866749,14.3273309 15.5806931,14.0003919 15.5912129,13.6742781 C15.6079208,13.1575701 15.7820132,13.0307137 16.2851073,13.1942863 C16.8894802,13.3906559 17.4847772,13.6150784 18.0856436,13.8223804 C18.3022277,13.8970503 18.544802,13.9725454 18.6514439,13.6777847 C18.7593234,13.3793111 18.5648102,13.2365718 18.310066,13.1503507 C18.0332508,13.0569101 17.7549917,12.9671823 17.4816832,12.864047 C17.2974835,12.7945338 17.0301568,12.7965965 17.0087046,12.5371081 C16.989934,12.3124794 17.232302,12.2600866 17.3791667,12.1526196 C17.4620875,12.0921823 17.5598597,12.0511345 17.6403053,11.9880157 C17.7989274,11.8632219 17.9171205,11.7050124 17.8011964,11.5010107 C17.685066,11.2968028 17.4818894,11.3215553 17.2972772,11.3859117 C17.1695957,11.4304662 17.054703,11.5119431 16.9336221,11.5760932 C16.5336634,11.7879332 16.4127888,11.7229579 16.4239274,11.258849 C16.4315594,10.9343853 16.5031353,10.6119843 16.5241749,10.2873144 C16.5394389,10.0517533 16.577599,9.75596122 16.2382838,9.72481436 C15.9177393,9.69531766 15.8542079,9.96780116 15.8278053,10.2132632 C15.7613861,10.8277434 15.607302,11.4292285 15.5930693,12.0523721 C15.5819307,12.5333952 15.4486799,12.6068276 15.0183993,12.4292285 C14.6691832,12.2850454 14.3230611,12.1328177 13.9785891,11.9770833 C13.3502888,11.6928424 13.3251238,11.4273721 13.8620462,10.9774959 C14.3356436,10.5806312 14.7993399,10.1720091 15.2624175,9.76297442 C15.3630776,9.67386551 15.4893152,9.563717 15.4282591,9.41396452 C15.355033,9.23450908 15.1700083,9.28215759 15.0200495,9.27638201 C14.5980198,9.25988036 14.4222772,9.64106848 14.1262789,9.82877475 C13.9589934,9.93500413 13.8257426,10.1829414 13.6040017,10.098783 C13.3678218,10.0090553 13.4627063,9.74317244 13.4342409,9.54783416 C13.4169142,9.42922855 13.4103135,9.30691007 13.3742162,9.19408003 C13.3193482,9.02205033 13.2193069,8.87601073 13.0105611,8.89065594 C12.7917079,8.90633251 12.7374587,9.07341172 12.7232261,9.25492987 C12.7112624,9.40901403 12.717863,9.56412954 12.710231,9.71862624 C12.7028053,9.87002888 12.7331271,10.0468028 12.5637789,10.1295173 C12.3964934,10.2112005 12.2714934,10.0903259 12.1487624,9.99729785 C11.8339934,9.75864274 11.5235561,9.51400578 11.2046617,9.28091997 C11.0526403,9.1697401 10.8804043,9.13694307 10.7446782,9.30402228 C10.6215347,9.45521865 10.6343234,9.63281766 10.7490099,9.7807137 C10.8313119,9.8867368 10.9457921,9.9702764 11.0538779,10.0536097 C11.5161304,10.4106642 11.9955033,10.7470916 12.4414604,11.1233292 C12.8115099,11.4354167 12.7904703,11.6757219 12.4018564,11.9502682 C12.1215347,12.1478754 11.8265677,12.326712 11.5283003,12.4968853 C10.9940594,12.8017533 10.7469472,12.6786097 10.6359736,12.0775371 C10.5206683,11.4527434 10.4090759,10.8269183 10.270462,10.2070751 C10.2261139,10.0082302 10.1025578,9.79535891 9.84368812,9.8502269 C9.605033,9.9007632 9.6064769,10.1309612 9.62669142,10.3151609 C9.66773927,10.6899546 9.73993399,11.0610355 9.7960396,11.4343853 C9.81893564,11.5853754 9.86761551,11.7545173 9.7160066,11.8617781 C9.58275578,11.9560437 9.45383663,11.8547649 9.33028053,11.801547 C9.1570132,11.7268771 8.98993399,11.6336427 8.81109736,11.5777434 C8.6429868,11.5251444 8.45713696,11.521019 8.35462046,11.7048061 C8.25932343,11.8749794 8.37462871,12.0061675 8.49179043,12.1066213 C8.63411716,12.2285272 8.79542079,12.3279497 8.94991749,12.4354167 C9.05841584,12.5109117 9.2335396,12.5377269 9.22487624,12.7070751 C9.21580033,12.8854992 9.05614686,12.9537748 8.91382013,13.0156559 C8.59884488,13.1528259 8.28077558,13.2831889 7.96456271,13.4180899 C7.74632838,13.5113243 7.53510726,13.6449876 7.62792904,13.9125206 C7.72487624,14.1913985 7.99117162,14.146019 8.20094884,14.0701114 C8.65309406,13.9065388 9.09389439,13.7124381 9.53985149,13.5323639 C10.6959983,13.0655734 10.7461221,13.0991955 10.757467,14.341151 Z M3.02211221,6.58434406 C2.38040429,6.7287335 2.44228548,6.1557137 2.24653465,5.78710809 C2.22363861,6.11219059 2.21476898,6.41561469 1.74756601,6.23884076 C1.88019802,6.51978135 1.97590759,6.73884076 2.25148515,6.78958333 C2.55965347,6.84651403 2.61802805,7.06639851 2.59368812,7.33001238 C2.56666667,7.62209158 2.38370462,7.69531766 2.12029703,7.65344472 C2.02169967,7.63797442 1.84884488,7.63962459 1.91691419,7.77287541 C2.00622937,7.94696782 1.66815182,8.13921205 1.91320132,8.20728135 C2.19476073,8.28525165 2.15165017,8.54143977 2.28242574,8.7182137 C2.49529703,8.4512995 2.26778053,7.97440182 2.71456271,7.89911304 C2.92413366,7.86384076 3.13494224,7.99172855 3.22219472,8.188717 C3.39917492,8.58785066 2.90598185,8.65818894 2.8164604,8.9352104 C3.26695545,8.99296617 3.72033828,8.90591997 4.28242574,9.08207508 C4.11761551,8.90509488 4.05387789,8.82671205 3.97982673,8.75988036 C3.89092409,8.67964109 3.77830033,8.62147277 3.7019802,8.53174505 C3.51241749,8.30835396 3.7609736,7.89890677 4.10750825,7.90282591 C4.6029703,7.90839521 4.36617162,8.45851898 4.61926568,8.6732467 C4.70094884,8.51049917 4.65598185,8.2932962 4.87916667,8.24544142 C5.2630363,8.16293317 4.8740099,7.95686881 4.94414191,7.80030941 C5.02623762,7.61693482 4.83461221,7.64581271 4.72116337,7.65612624 C4.32161716,7.69201733 4.24529703,7.43603548 4.28283828,7.13199257 C4.32945545,6.75492987 4.59121287,6.79267739 4.86637789,6.87229785 C4.98415842,6.90633251 5.10379538,7.01813119 5.14752475,6.98389026 C5.18939769,6.44531766 4.72982673,6.2442038 4.58028053,5.84507013 C4.34492574,6.03896452 4.66670792,6.77741337 3.96002475,6.48450908 C3.39752475,6.25142327 3.75066007,5.93129125 3.90577558,5.72192657 C3.56790429,5.22935231 3.19207921,5.64065594 2.81872937,5.56144802 C3.32594884,6.16643977 3.32594884,6.16643977 3.01674917,6.58908828 L3.02211221,6.58434406 Z M13.1900165,20.8254744 C8.18011551,20.8180487 5.0664604,15.5447401 7.42186469,11.1629332 C7.67165842,10.6979992 7.66670792,10.3865305 7.26674917,10.0496906 C6.99179043,9.81825495 6.74158416,9.55340347 6.50334158,9.28318894 C6.23890264,8.98347772 6.06687294,8.97192657 5.78118812,9.30711634 C4.49962871,10.8112417 2.36266502,10.9057137 0.982714521,9.55835396 C0.0367574257,8.63488036 -0.199628713,7.50286716 0.159282178,6.28834571 C0.530981848,5.03153878 1.43898515,4.26730611 2.74261551,4.06082921 C4.04273927,3.85497112 5.14216172,4.28463284 5.8915429,5.36858498 C6.20136139,5.81660479 6.44764851,5.90963284 6.96641914,5.77555693 C9.02768152,5.24317244 11.102764,4.76297442 13.1761964,4.27803218 C13.59967,4.17902228 13.6310231,3.89849422 13.6481436,3.54680281 C13.7347772,1.77431931 15.2259076,0.27205033 16.9604373,0.190985974 C19.1790842,0.0872318482 20.842863,1.76627475 20.7671617,4.03257013 C20.6992987,6.05567244 18.8249175,7.56186056 16.6786716,7.26998762 C16.1815594,7.20212459 15.9930281,7.37539191 15.8641089,7.80195957 C15.7450908,8.19531766 15.9468234,8.37106023 16.2448845,8.52988861 C17.5299505,9.21511964 18.4765264,10.2190388 19.1112211,11.5327764 C20.9123762,15.261118 18.6081271,19.8743606 14.5396452,20.6738655 C14.0662541,20.7668936 13.595132,20.8615718 13.1900165,20.8254744 Z" id="Fill-1" fill="#FFFFFF" mask="url(#mask-2)"></path>
                </g>
                <path d="M14.2125206,13.2919967 C14.1421823,13.6267739 14.2612005,13.7761139 14.5262583,13.8353135 C14.7824464,13.8926568 14.8090553,14.107797 14.8305074,14.3161304 C14.8519596,14.52467 14.7240718,14.6234736 14.545854,14.6886551 C14.2834777,14.784571 14.1471328,14.9473185 14.2657384,15.2435231 C14.3765058,15.5203383 14.1863243,15.6546205 13.9922236,15.7790017 C13.8051361,15.8990512 13.6384695,15.8755363 13.4907797,15.7028878 C13.2915223,15.4695957 13.0932962,15.4617574 12.8950701,15.7113449 C12.7502682,15.8938944 12.5759695,15.8732673 12.3878507,15.7765264 C12.2017946,15.6810231 12.0749381,15.555198 12.1339315,15.3299505 C12.2174711,15.0120875 12.0767946,14.8382013 11.7840965,14.7534241 C11.5963903,14.6991749 11.4965553,14.5768564 11.4866543,14.3813119 C11.4757219,14.1709158 11.5439975,14.007962 11.7603754,13.9417492 C12.0483292,13.8536716 12.1273309,13.6523515 12.0619431,13.3804868 C12.010788,13.1678218 12.0720503,13.0162129 12.2599629,12.9015264 C12.4652021,12.7763201 12.6450701,12.7961221 12.8247318,12.9506188 C13.0217203,13.1197607 13.2358292,13.1461634 13.4179662,12.942368 C13.5836015,12.7569307 13.7459365,12.7239274 13.9598391,12.8491337 C14.1601279,12.9662954 14.2840965,13.1069719 14.2125206,13.2919967" id="Fill-4" fill="#FFFFFF"></path>
                <path d="M17.4426568,4.43312706 C17.1365512,4.4335396 16.6823432,4.01542904 16.6885314,3.73840759 C16.695132,3.44364686 17.1008663,3.15816832 17.4849422,3.1365099 C17.9738036,3.10886964 18.0344472,3.49768977 18.0992162,3.80255776 C18.1650165,4.11340759 17.7840347,4.43250825 17.4426568,4.43312706" id="Fill-6" fill="#FFFFFF"></path>
                <path d="M3.01681106,6.60884901 C3.16738861,6.63442657 3.32064769,6.69156353 3.46833746,6.67980611 C3.94131601,6.64226485 4.01247937,6.97992987 4.01309818,7.3012995 C4.013717,7.66908003 3.64717409,7.92650578 3.29960809,7.83306518 C2.9272896,7.73302393 2.80620875,7.44692657 2.86870875,7.08677805 C2.89717409,6.92217409 2.96957508,6.7647896 3.02196782,6.60431106 L3.01681106,6.60884901 Z" id="Fill-8" fill="#FFFFFF"></path>
            </g>
        </g>
    </g>
</svg>