<?xml version="1.0" encoding="UTF-8"?>
<svg width="40px" height="40px" viewBox="0 0 40 40" version="1.1" xmlns="http://www.w3.org/2000/svg" xmlns:xlink="http://www.w3.org/1999/xlink">
    <!-- Generator: Sketch 48.2 (47327) - http://www.bohemiancoding.com/sketch -->
    <title>icon_washing machine</title>
    <desc>Created with Sketch.</desc>
    <defs></defs>
    <g id="01_英文移动端_首页" stroke="none" stroke-width="1" fill="none" fill-rule="evenodd" transform="translate(-309.000000, -579.000000)">
        <g id="Group-27" transform="translate(309.000000, 579.000000)" stroke="#666666">
            <g id="Page-1" transform="translate(10.000000, 8.129032)">
                <g id="Group-4">
                    <path d="M3.32258065,23.5483871 L16.7632258,23.5483871 C18.4200801,23.5483871 19.7632258,22.2052413 19.7632258,20.5483871 L19.7632258,3.32258065 C19.7632258,1.6657264 18.4200801,0.322580645 16.7632258,0.322580645 L3.32258065,0.322580645 C1.6657264,0.322580645 0.322580645,1.6657264 0.322580645,3.32258065 L0.322580645,20.5483871 C0.322580645,22.2052413 1.6657264,23.5483871 3.32258065,23.5483871 Z" id="Stroke-1"></path>
                    <path d="M9.668,4.32806452 L19.5370323,4.32806452" id="Stroke-3"></path>
                </g>
                <path d="M15.6492258,2.33870968 L17.9401935,2.33870968" id="Stroke-5"></path>
                <g id="Group-10" transform="translate(3.225806, 7.096774)">
                    <path d="M12.9920645,6.69354839 C12.9920645,10.1483871 10.1914194,12.9490323 6.73658065,12.9490323 C3.28174194,12.9490323 0.480451613,10.1483871 0.480451613,6.69354839 C0.480451613,3.23870968 3.28174194,0.438064516 6.73658065,0.438064516 C10.1914194,0.438064516 12.9920645,3.23870968 12.9920645,6.69354839 Z" id="Stroke-6"></path>
                    <path d="M8.57167742,2.34877419 C9.71877419,2.83393548 10.6336129,3.75974194 11.1045806,4.91393548" id="Stroke-8"></path>
                </g>
            </g>
        </g>
    </g>
</svg>