<?xml version="1.0" encoding="UTF-8"?>
<svg width="40px" height="40px" viewBox="0 0 40 40" version="1.1" xmlns="http://www.w3.org/2000/svg" xmlns:xlink="http://www.w3.org/1999/xlink">
    <!-- Generator: Sketch 48.2 (47327) - http://www.bohemiancoding.com/sketch -->
    <title>icon_Water heater</title>
    <desc>Created with Sketch.</desc>
    <defs></defs>
    <g id="01_英文移动端_首页" stroke="none" stroke-width="1" fill="none" fill-rule="evenodd" transform="translate(-27.000000, -673.000000)">
        <rect id="Rectangle-Copy" x="0" y="650" width="94" height="94"></rect>
        <g id="Page-1" transform="translate(38.000000, 677.000000)" stroke="#666666">
            <path d="M16.8084146,31.8815217 L1.61262889,31.8815217 C1.06034414,31.8815217 0.612628892,31.4338065 0.612628892,30.8815217 C0.612628892,30.8324608 0.616239349,30.7834664 0.623431013,30.7349354 L1.557,24.435 L16.8640435,24.435 L17.7976125,30.7349354 C17.8785699,31.2812543 17.5013198,31.7897622 16.9550009,31.8707196 C16.9064699,31.8779113 16.8574755,31.8815217 16.8084146,31.8815217 Z" id="Stroke-1"></path>
            <polygon id="Stroke-3" points="7.89886957 12.8650696 10.3844348 12.8650696 10.3844348 7.4415913 7.89886957 7.4415913"></polygon>
            <g id="Group-10" transform="translate(0.782609, 0.186026)">
                <path d="M9.60182609,16.2672261 C9.60182609,16.9535739 9.0453913,17.5100087 8.35904348,17.5100087 C7.67269565,17.5100087 7.11626087,16.9535739 7.11626087,16.2672261 C7.11626087,15.5808783 7.67269565,15.0244435 8.35904348,15.0244435 C9.0453913,15.0244435 9.60182609,15.5808783 9.60182609,16.2672261 Z" id="Stroke-4"></path>
                <path d="M7.23983478,19.5792261 L9.5907913,19.5792261" id="Stroke-6"></path>
                <path d="M0.774,24.2491304 L16.0818261,24.2491304 L16.0818261,3.20582609 C16.0818261,1.54897184 14.7386803,0.205826087 13.0818261,0.205826087 L3.774,0.205826087 C2.11714575,0.205826087 0.774,1.54897184 0.774,3.20582609 L0.774,24.2491304 Z" id="Stroke-8"></path>
            </g>
        </g>
    </g>
</svg>